<svg xmlns="http://www.w3.org/2000/svg" xmlns:xlink="http://www.w3.org/1999/xlink" width="260" zoomAndPan="magnify" viewBox="0 0 194.87999 106.499997" height="142" preserveAspectRatio="xMidYMid meet" version="1.0"><defs><g/></defs><g fill="#ff00ff" fill-opacity="1"><g transform="translate(27.72855, 63.224016)"><g><path d="M 21.53125 -4.046875 L 1.75 -12.765625 L 1.75 -15.625 L 21.53125 -25.5 L 21.53125 -20.71875 L 7.90625 -14.40625 L 21.53125 -8.8125 Z M 21.53125 -4.046875 "/></g></g></g><g fill="#ff00ff" fill-opacity="1"><g transform="translate(51.017583, 63.224016)"><g><path d="M 16.65625 -29.125 L 5.796875 0 L 0.28125 0 L 11.140625 -29.125 Z M 16.65625 -29.125 "/></g></g></g><g fill="#ff00ff" fill-opacity="1"><g transform="translate(67.87175, 63.224016)"><g><path d="M 27.828125 -14.84375 C 27.828125 -10.050781 26.460938 -6.378906 23.734375 -3.828125 C 21.003906 -1.273438 17.0625 0 11.90625 0 L 3.671875 0 L 3.671875 -29.125 L 12.8125 -29.125 C 17.5625 -29.125 21.25 -27.867188 23.875 -25.359375 C 26.507812 -22.847656 27.828125 -19.34375 27.828125 -14.84375 Z M 21.421875 -14.6875 C 21.421875 -20.9375 18.65625 -24.0625 13.125 -24.0625 L 9.84375 -24.0625 L 9.84375 -5.09375 L 12.484375 -5.09375 C 18.441406 -5.09375 21.421875 -8.289062 21.421875 -14.6875 Z M 21.421875 -14.6875 "/></g></g></g><g fill="#ff00ff" fill-opacity="1"><g transform="translate(98.07378, 63.224016)"><g><path d="M 12.40625 -18.359375 C 11.125 -18.359375 10.113281 -17.953125 9.375 -17.140625 C 8.644531 -16.328125 8.226562 -15.171875 8.125 -13.671875 L 16.65625 -13.671875 C 16.625 -15.171875 16.226562 -16.328125 15.46875 -17.140625 C 14.71875 -17.953125 13.695312 -18.359375 12.40625 -18.359375 Z M 13.265625 0.390625 C 9.679688 0.390625 6.878906 -0.59375 4.859375 -2.5625 C 2.835938 -4.539062 1.828125 -7.34375 1.828125 -10.96875 C 1.828125 -14.707031 2.757812 -17.59375 4.625 -19.625 C 6.5 -21.664062 9.082031 -22.6875 12.375 -22.6875 C 15.519531 -22.6875 17.96875 -21.789062 19.71875 -20 C 21.46875 -18.207031 22.34375 -15.726562 22.34375 -12.5625 L 22.34375 -9.625 L 7.984375 -9.625 C 8.054688 -7.894531 8.566406 -6.546875 9.515625 -5.578125 C 10.472656 -4.609375 11.816406 -4.125 13.546875 -4.125 C 14.890625 -4.125 16.15625 -4.257812 17.34375 -4.53125 C 18.539062 -4.8125 19.789062 -5.257812 21.09375 -5.875 L 21.09375 -1.171875 C 20.03125 -0.640625 18.894531 -0.25 17.6875 0 C 16.476562 0.257812 15.003906 0.390625 13.265625 0.390625 Z M 13.265625 0.390625 "/></g></g></g><g fill="#ff00ff" fill-opacity="1"><g transform="translate(122.179623, 63.224016)"><g><path d="M 8.484375 0 L 0 -22.265625 L 6.359375 -22.265625 L 10.65625 -9.578125 C 11.132812 -7.972656 11.429688 -6.453125 11.546875 -5.015625 L 11.671875 -5.015625 C 11.734375 -6.296875 12.03125 -7.816406 12.5625 -9.578125 L 16.859375 -22.265625 L 23.203125 -22.265625 L 14.71875 0 Z M 8.484375 0 "/></g></g></g><g fill="#ff00ff" fill-opacity="1"><g transform="translate(145.388967, 63.224016)"><g><path d="M 1.75 -8.8125 L 15.375 -14.40625 L 1.75 -20.71875 L 1.75 -25.5 L 21.53125 -15.625 L 21.53125 -12.765625 L 1.75 -4.046875 Z M 1.75 -8.8125 "/></g></g></g><g fill="#00ffff" fill-opacity="1"><g transform="translate(26.198235, 63.224016)"><g><path d="M 21.53125 -4.046875 L 1.75 -12.765625 L 1.75 -15.625 L 21.53125 -25.5 L 21.53125 -20.71875 L 7.90625 -14.40625 L 21.53125 -8.8125 Z M 21.53125 -4.046875 "/></g></g></g><g fill="#00ffff" fill-opacity="1"><g transform="translate(49.487267, 63.224016)"><g><path d="M 16.65625 -29.125 L 5.796875 0 L 0.28125 0 L 11.140625 -29.125 Z M 16.65625 -29.125 "/></g></g></g><g fill="#00ffff" fill-opacity="1"><g transform="translate(66.341435, 63.224016)"><g><path d="M 27.828125 -14.84375 C 27.828125 -10.050781 26.460938 -6.378906 23.734375 -3.828125 C 21.003906 -1.273438 17.0625 0 11.90625 0 L 3.671875 0 L 3.671875 -29.125 L 12.8125 -29.125 C 17.5625 -29.125 21.25 -27.867188 23.875 -25.359375 C 26.507812 -22.847656 27.828125 -19.34375 27.828125 -14.84375 Z M 21.421875 -14.6875 C 21.421875 -20.9375 18.65625 -24.0625 13.125 -24.0625 L 9.84375 -24.0625 L 9.84375 -5.09375 L 12.484375 -5.09375 C 18.441406 -5.09375 21.421875 -8.289062 21.421875 -14.6875 Z M 21.421875 -14.6875 "/></g></g></g><g fill="#00ffff" fill-opacity="1"><g transform="translate(96.543465, 63.224016)"><g><path d="M 12.40625 -18.359375 C 11.125 -18.359375 10.113281 -17.953125 9.375 -17.140625 C 8.644531 -16.328125 8.226562 -15.171875 8.125 -13.671875 L 16.65625 -13.671875 C 16.625 -15.171875 16.226562 -16.328125 15.46875 -17.140625 C 14.71875 -17.953125 13.695312 -18.359375 12.40625 -18.359375 Z M 13.265625 0.390625 C 9.679688 0.390625 6.878906 -0.59375 4.859375 -2.5625 C 2.835938 -4.539062 1.828125 -7.34375 1.828125 -10.96875 C 1.828125 -14.707031 2.757812 -17.59375 4.625 -19.625 C 6.5 -21.664062 9.082031 -22.6875 12.375 -22.6875 C 15.519531 -22.6875 17.96875 -21.789062 19.71875 -20 C 21.46875 -18.207031 22.34375 -15.726562 22.34375 -12.5625 L 22.34375 -9.625 L 7.984375 -9.625 C 8.054688 -7.894531 8.566406 -6.546875 9.515625 -5.578125 C 10.472656 -4.609375 11.816406 -4.125 13.546875 -4.125 C 14.890625 -4.125 16.15625 -4.257812 17.34375 -4.53125 C 18.539062 -4.8125 19.789062 -5.257812 21.09375 -5.875 L 21.09375 -1.171875 C 20.03125 -0.640625 18.894531 -0.25 17.6875 0 C 16.476562 0.257812 15.003906 0.390625 13.265625 0.390625 Z M 13.265625 0.390625 "/></g></g></g><g fill="#00ffff" fill-opacity="1"><g transform="translate(120.649308, 63.224016)"><g><path d="M 8.484375 0 L 0 -22.265625 L 6.359375 -22.265625 L 10.65625 -9.578125 C 11.132812 -7.972656 11.429688 -6.453125 11.546875 -5.015625 L 11.671875 -5.015625 C 11.734375 -6.296875 12.03125 -7.816406 12.5625 -9.578125 L 16.859375 -22.265625 L 23.203125 -22.265625 L 14.71875 0 Z M 8.484375 0 "/></g></g></g><g fill="#00ffff" fill-opacity="1"><g transform="translate(143.858652, 63.224016)"><g><path d="M 1.75 -8.8125 L 15.375 -14.40625 L 1.75 -20.71875 L 1.75 -25.5 L 21.53125 -15.625 L 21.53125 -12.765625 L 1.75 -4.046875 Z M 1.75 -8.8125 "/></g></g></g><g fill="#000000" fill-opacity="1"><g transform="translate(26.963392, 63.224016)"><g><path d="M 21.53125 -4.046875 L 1.75 -12.765625 L 1.75 -15.625 L 21.53125 -25.5 L 21.53125 -20.71875 L 7.90625 -14.40625 L 21.53125 -8.8125 Z M 21.53125 -4.046875 "/></g></g></g><g fill="#000000" fill-opacity="1"><g transform="translate(50.252425, 63.224016)"><g><path d="M 16.65625 -29.125 L 5.796875 0 L 0.28125 0 L 11.140625 -29.125 Z M 16.65625 -29.125 "/></g></g></g><g fill="#000000" fill-opacity="1"><g transform="translate(67.106592, 63.224016)"><g><path d="M 27.828125 -14.84375 C 27.828125 -10.050781 26.460938 -6.378906 23.734375 -3.828125 C 21.003906 -1.273438 17.0625 0 11.90625 0 L 3.671875 0 L 3.671875 -29.125 L 12.8125 -29.125 C 17.5625 -29.125 21.25 -27.867188 23.875 -25.359375 C 26.507812 -22.847656 27.828125 -19.34375 27.828125 -14.84375 Z M 21.421875 -14.6875 C 21.421875 -20.9375 18.65625 -24.0625 13.125 -24.0625 L 9.84375 -24.0625 L 9.84375 -5.09375 L 12.484375 -5.09375 C 18.441406 -5.09375 21.421875 -8.289062 21.421875 -14.6875 Z M 21.421875 -14.6875 "/></g></g></g><g fill="#000000" fill-opacity="1"><g transform="translate(97.308623, 63.224016)"><g><path d="M 12.40625 -18.359375 C 11.125 -18.359375 10.113281 -17.953125 9.375 -17.140625 C 8.644531 -16.328125 8.226562 -15.171875 8.125 -13.671875 L 16.65625 -13.671875 C 16.625 -15.171875 16.226562 -16.328125 15.46875 -17.140625 C 14.71875 -17.953125 13.695312 -18.359375 12.40625 -18.359375 Z M 13.265625 0.390625 C 9.679688 0.390625 6.878906 -0.59375 4.859375 -2.5625 C 2.835938 -4.539062 1.828125 -7.34375 1.828125 -10.96875 C 1.828125 -14.707031 2.757812 -17.59375 4.625 -19.625 C 6.5 -21.664062 9.082031 -22.6875 12.375 -22.6875 C 15.519531 -22.6875 17.96875 -21.789062 19.71875 -20 C 21.46875 -18.207031 22.34375 -15.726562 22.34375 -12.5625 L 22.34375 -9.625 L 7.984375 -9.625 C 8.054688 -7.894531 8.566406 -6.546875 9.515625 -5.578125 C 10.472656 -4.609375 11.816406 -4.125 13.546875 -4.125 C 14.890625 -4.125 16.15625 -4.257812 17.34375 -4.53125 C 18.539062 -4.8125 19.789062 -5.257812 21.09375 -5.875 L 21.09375 -1.171875 C 20.03125 -0.640625 18.894531 -0.25 17.6875 0 C 16.476562 0.257812 15.003906 0.390625 13.265625 0.390625 Z M 13.265625 0.390625 "/></g></g></g><g fill="#000000" fill-opacity="1"><g transform="translate(121.414465, 63.224016)"><g><path d="M 8.484375 0 L 0 -22.265625 L 6.359375 -22.265625 L 10.65625 -9.578125 C 11.132812 -7.972656 11.429688 -6.453125 11.546875 -5.015625 L 11.671875 -5.015625 C 11.734375 -6.296875 12.03125 -7.816406 12.5625 -9.578125 L 16.859375 -22.265625 L 23.203125 -22.265625 L 14.71875 0 Z M 8.484375 0 "/></g></g></g><g fill="#000000" fill-opacity="1"><g transform="translate(144.623809, 63.224016)"><g><path d="M 1.75 -8.8125 L 15.375 -14.40625 L 1.75 -20.71875 L 1.75 -25.5 L 21.53125 -15.625 L 21.53125 -12.765625 L 1.75 -4.046875 Z M 1.75 -8.8125 "/></g></g></g></svg>